<?xml version="1.0" encoding="us-ascii" standalone="no"?><svg xmlns="http://www.w3.org/2000/svg" xmlns:xlink="http://www.w3.org/1999/xlink" contentStyleType="text/css" height="2106px" preserveAspectRatio="none" style="width:699px;height:2106px;background:#FFFFFF;" version="1.1" viewBox="0 0 699 2106" width="699px" zoomAndPan="magnify"><defs/><g><text fill="#000000" font-family="sans-serif" font-size="14" font-weight="bold" lengthAdjust="spacing" textLength="327" x="184.5" y="33.5352">Adaptive Learning System - Activity Diagram</text><rect fill="none" height="278.0195" style="stroke:#000000;stroke-width:1.5;" width="237" x="175.375" y="48.4883"/><path d="M238.375,48.4883 L238.375,57.9766 L228.375,67.9766 L175.375,67.9766 " fill="none" style="stroke:#000000;stroke-width:1.5;"/><text fill="#000000" font-family="sans-serif" font-size="14" lengthAdjust="spacing" textLength="53" x="178.375" y="63.0234">Student</text><ellipse cx="293.875" cy="87.9766" fill="#000000" rx="10" ry="10" style="stroke:#222222;stroke-width:1.0;"/><rect fill="#E8E8E8" height="34.1328" rx="12.5" ry="12.5" style="stroke:#000000;stroke-width:0.5;" width="145" x="221.375" y="117.9766"/><text fill="#000000" font-family="sans-serif" font-size="12" lengthAdjust="spacing" textLength="125" x="231.375" y="139.5781">Start Learning Session</text><rect fill="#E8E8E8" height="34.1328" rx="12.5" ry="12.5" style="stroke:#000000;stroke-width:0.5;" width="132" x="227.875" y="172.1094"/><text fill="#000000" font-family="sans-serif" font-size="12" lengthAdjust="spacing" textLength="112" x="237.875" y="193.7109">Engage with Lesson</text><rect fill="#E8E8E8" height="34.1328" rx="12.5" ry="12.5" style="stroke:#000000;stroke-width:0.5;" width="217" x="185.375" y="226.2422"/><text fill="#000000" font-family="sans-serif" font-size="12" lengthAdjust="spacing" textLength="197" x="195.375" y="247.8438">Ask Questions (Voice/Text/Touch)</text><rect fill="#E8E8E8" height="34.1328" rx="12.5" ry="12.5" style="stroke:#000000;stroke-width:0.5;" width="214" x="186.875" y="280.375"/><text fill="#000000" font-family="sans-serif" font-size="12" lengthAdjust="spacing" textLength="194" x="196.875" y="301.9766">Provide Emotional &amp; Focus Signals</text><rect fill="none" height="805.2939" style="stroke:#000000;stroke-width:1.5;" width="677" x="11" y="336.5078"/><path d="M77,336.5078 L77,345.9961 L67,355.9961 L11,355.9961 " fill="none" style="stroke:#000000;stroke-width:1.5;"/><text fill="#000000" font-family="sans-serif" font-size="14" lengthAdjust="spacing" textLength="56" x="14" y="351.043">AI Tutor</text><rect fill="#E8E8E8" height="34.1328" rx="12.5" ry="12.5" style="stroke:#000000;stroke-width:0.5;" width="206" x="190.875" y="372.9961"/><text fill="#000000" font-family="sans-serif" font-size="12" lengthAdjust="spacing" textLength="186" x="200.875" y="394.5977">Analyze Focus &amp; Emotion Signals</text><polygon fill="#E8E8E8" points="246.875,427.1289,340.875,427.1289,352.875,439.1289,340.875,451.1289,246.875,451.1289,234.875,439.1289,246.875,427.1289" style="stroke:#000000;stroke-width:0.5;"/><text fill="#000000" font-family="sans-serif" font-size="11" lengthAdjust="spacing" textLength="94" x="246.875" y="443.2861">Student Focused?</text><text fill="#000000" font-family="sans-serif" font-size="11" lengthAdjust="spacing" textLength="19" x="215.875" y="436.8086">Yes</text><text fill="#000000" font-family="sans-serif" font-size="11" lengthAdjust="spacing" textLength="15" x="352.875" y="436.8086">No</text><rect fill="#E8E8E8" height="34.1328" rx="12.5" ry="12.5" style="stroke:#000000;stroke-width:0.5;" width="168" x="38" y="461.1289"/><text fill="#000000" font-family="sans-serif" font-size="12" lengthAdjust="spacing" textLength="148" x="48" y="482.7305">Continue Lesson Normally</text><rect fill="#E8E8E8" height="34.1328" rx="12.5" ry="12.5" style="stroke:#000000;stroke-width:0.5;" width="198" x="23" y="530.2617"/><text fill="#000000" font-family="sans-serif" font-size="12" lengthAdjust="spacing" textLength="178" x="33" y="551.8633">Reward with Positive Feedback</text><polygon fill="#E8E8E8" points="432.75,461.1289,498.75,461.1289,510.75,473.1289,498.75,485.1289,432.75,485.1289,420.75,473.1289,432.75,461.1289" style="stroke:#000000;stroke-width:0.5;"/><text fill="#000000" font-family="sans-serif" font-size="11" lengthAdjust="spacing" textLength="66" x="432.75" y="477.2861">Stress High?</text><text fill="#000000" font-family="sans-serif" font-size="11" lengthAdjust="spacing" textLength="19" x="401.75" y="470.8086">Yes</text><text fill="#000000" font-family="sans-serif" font-size="11" lengthAdjust="spacing" textLength="15" x="510.75" y="470.8086">No</text><rect fill="#E8E8E8" height="34.1328" rx="12.5" ry="12.5" style="stroke:#000000;stroke-width:0.5;" width="207" x="251" y="495.1289"/><text fill="#000000" font-family="sans-serif" font-size="12" lengthAdjust="spacing" textLength="187" x="261" y="516.7305">Pause and Offer Calming Activity</text><rect fill="#E8E8E8" height="34.1328" rx="12.5" ry="12.5" style="stroke:#000000;stroke-width:0.5;" width="198" x="478" y="495.1289"/><text fill="#000000" font-family="sans-serif" font-size="12" lengthAdjust="spacing" textLength="178" x="488" y="516.7305">Repeat Lesson with Visual Aids</text><polygon fill="#E8E8E8" points="465.75,535.2617,477.75,547.2617,465.75,559.2617,453.75,547.2617,465.75,535.2617" style="stroke:#000000;stroke-width:0.5;"/><polygon fill="#E8E8E8" points="293.875,570.3945,305.875,582.3945,293.875,594.3945,281.875,582.3945,293.875,570.3945" style="stroke:#000000;stroke-width:0.5;"/><rect fill="#E8E8E8" height="34.1328" rx="12.5" ry="12.5" style="stroke:#000000;stroke-width:0.5;" width="169" x="209.375" y="614.3945"/><text fill="#000000" font-family="sans-serif" font-size="12" lengthAdjust="spacing" textLength="149" x="219.375" y="635.9961">Answer Student Questions</text><rect fill="#E8E8E8" height="34.1328" rx="12.5" ry="12.5" style="stroke:#000000;stroke-width:0.5;" width="241" x="173.375" y="668.5273"/><text fill="#000000" font-family="sans-serif" font-size="12" lengthAdjust="spacing" textLength="221" x="183.375" y="690.1289">Track Accuracy, Engagement, Emotion</text><polygon fill="#E8E8E8" points="231.375,722.6602,356.375,722.6602,368.375,734.6602,356.375,746.6602,231.375,746.6602,219.375,734.6602,231.375,722.6602" style="stroke:#000000;stroke-width:0.5;"/><text fill="#000000" font-family="sans-serif" font-size="11" lengthAdjust="spacing" textLength="125" x="231.375" y="738.8174">Accuracy &#8805; Threshold?</text><text fill="#000000" font-family="sans-serif" font-size="11" lengthAdjust="spacing" textLength="19" x="200.375" y="732.3398">Yes</text><text fill="#000000" font-family="sans-serif" font-size="11" lengthAdjust="spacing" textLength="15" x="368.375" y="732.3398">No</text><rect fill="#E8E8E8" height="34.1328" rx="12.5" ry="12.5" style="stroke:#000000;stroke-width:0.5;" width="179" x="100.375" y="756.6602"/><text fill="#000000" font-family="sans-serif" font-size="12" lengthAdjust="spacing" textLength="159" x="110.375" y="778.2617">Display Achievement Badge</text><rect fill="#E8E8E8" height="34.1328" rx="12.5" ry="12.5" style="stroke:#000000;stroke-width:0.5;" width="197" x="299.375" y="756.6602"/><text fill="#000000" font-family="sans-serif" font-size="12" lengthAdjust="spacing" textLength="177" x="309.375" y="778.2617">Provide Constructive Feedback</text><polygon fill="#E8E8E8" points="293.875,796.793,305.875,808.793,293.875,820.793,281.875,808.793,293.875,796.793" style="stroke:#000000;stroke-width:0.5;"/><rect fill="#E8E8E8" height="34.1328" rx="12.5" ry="12.5" style="stroke:#000000;stroke-width:0.5;" width="149" x="219.375" y="889.2705"/><text fill="#000000" font-family="sans-serif" font-size="12" lengthAdjust="spacing" textLength="129" x="229.375" y="910.8721">Trigger Alert to Parent</text><polygon fill="#E8E8E8" points="233.375,840.793,354.375,840.793,366.375,852.793,354.375,864.793,233.375,864.793,221.375,852.793,233.375,840.793" style="stroke:#000000;stroke-width:0.5;"/><text fill="#000000" font-family="sans-serif" font-size="11" lengthAdjust="spacing" textLength="19" x="297.875" y="875.4277">Yes</text><text fill="#000000" font-family="sans-serif" font-size="11" lengthAdjust="spacing" textLength="121" x="233.375" y="856.9502">Stress Limit Exceeded?</text><polygon fill="#E8E8E8" points="293.875,943.4033,305.875,955.4033,293.875,967.4033,281.875,955.4033,293.875,943.4033" style="stroke:#000000;stroke-width:0.5;"/><rect fill="#E8E8E8" height="34.1328" rx="12.5" ry="12.5" style="stroke:#000000;stroke-width:0.5;" width="171" x="208.375" y="987.4033"/><text fill="#000000" font-family="sans-serif" font-size="12" lengthAdjust="spacing" textLength="151" x="218.375" y="1009.0049">Update Parent Dashboard</text><rect fill="#E8E8E8" height="34.1328" rx="12.5" ry="12.5" style="stroke:#000000;stroke-width:0.5;" width="181" x="203.375" y="1041.5361"/><text fill="#000000" font-family="sans-serif" font-size="12" lengthAdjust="spacing" textLength="161" x="213.375" y="1063.1377">Update Teacher Dashboard</text><rect fill="#E8E8E8" height="34.1328" rx="12.5" ry="12.5" style="stroke:#000000;stroke-width:0.5;" width="169" x="209.375" y="1095.6689"/><text fill="#000000" font-family="sans-serif" font-size="12" lengthAdjust="spacing" textLength="149" x="219.375" y="1117.2705">Update Supervisor Report</text><rect fill="none" height="337.4971" style="stroke:#000000;stroke-width:1.5;" width="250" x="174.875" y="1151.8018"/><path d="M228.875,1151.8018 L228.875,1161.29 L218.875,1171.29 L174.875,1171.29 " fill="none" style="stroke:#000000;stroke-width:1.5;"/><text fill="#000000" font-family="sans-serif" font-size="14" lengthAdjust="spacing" textLength="44" x="177.875" y="1166.3369">Parent</text><rect fill="#E8E8E8" height="34.1328" rx="12.5" ry="12.5" style="stroke:#000000;stroke-width:0.5;" width="212" x="187.875" y="1188.29"/><text fill="#000000" font-family="sans-serif" font-size="12" lengthAdjust="spacing" textLength="192" x="197.875" y="1209.8916">View Child&#8217;s Progress Dashboard</text><rect fill="#E8E8E8" height="34.1328" rx="12.5" ry="12.5" style="stroke:#000000;stroke-width:0.5;" width="139" x="224.375" y="1242.4229"/><text fill="#000000" font-family="sans-serif" font-size="12" lengthAdjust="spacing" textLength="119" x="234.375" y="1264.0244">Receive Stress Alerts</text><rect fill="#E8E8E8" height="34.1328" rx="12.5" ry="12.5" style="stroke:#000000;stroke-width:0.5;" width="215" x="186.375" y="1296.5557"/><text fill="#000000" font-family="sans-serif" font-size="12" lengthAdjust="spacing" textLength="195" x="196.375" y="1318.1572">Adjust Learning Goals or Difficulty</text><rect fill="#E8E8E8" height="34.1328" rx="12.5" ry="12.5" style="stroke:#000000;stroke-width:0.5;" width="198" x="194.875" y="1399.166"/><text fill="#000000" font-family="sans-serif" font-size="12" lengthAdjust="spacing" textLength="178" x="204.875" y="1420.7676">End Session and Save Progress</text><polygon fill="#E8E8E8" points="239.875,1350.6885,347.875,1350.6885,359.875,1362.6885,347.875,1374.6885,239.875,1374.6885,227.875,1362.6885,239.875,1350.6885" style="stroke:#000000;stroke-width:0.5;"/><text fill="#000000" font-family="sans-serif" font-size="11" lengthAdjust="spacing" textLength="19" x="297.875" y="1385.3232">Yes</text><text fill="#000000" font-family="sans-serif" font-size="11" lengthAdjust="spacing" textLength="108" x="239.875" y="1366.8457">Time Limit Reached?</text><polygon fill="#E8E8E8" points="293.875,1453.2988,305.875,1465.2988,293.875,1477.2988,281.875,1465.2988,293.875,1453.2988" style="stroke:#000000;stroke-width:0.5;"/><rect fill="none" height="245.0195" style="stroke:#000000;stroke-width:1.5;" width="283" x="152.375" y="1499.2988"/><path d="M217.375,1499.2988 L217.375,1508.7871 L207.375,1518.7871 L152.375,1518.7871 " fill="none" style="stroke:#000000;stroke-width:1.5;"/><text fill="#000000" font-family="sans-serif" font-size="14" lengthAdjust="spacing" textLength="55" x="155.375" y="1513.834">Teacher</text><rect fill="#E8E8E8" height="34.1328" rx="12.5" ry="12.5" style="stroke:#000000;stroke-width:0.5;" width="182" x="202.875" y="1535.7871"/><text fill="#000000" font-family="sans-serif" font-size="12" lengthAdjust="spacing" textLength="162" x="212.875" y="1557.3887">Upload Lessons or Materials</text><rect fill="#E8E8E8" height="34.1328" rx="12.5" ry="12.5" style="stroke:#000000;stroke-width:0.5;" width="245" x="171.375" y="1589.9199"/><text fill="#000000" font-family="sans-serif" font-size="12" lengthAdjust="spacing" textLength="225" x="181.375" y="1611.5215">Monitor Student Engagement Indicators</text><rect fill="#E8E8E8" height="34.1328" rx="12.5" ry="12.5" style="stroke:#000000;stroke-width:0.5;" width="263" x="162.375" y="1644.0527"/><text fill="#000000" font-family="sans-serif" font-size="12" lengthAdjust="spacing" textLength="243" x="172.375" y="1665.6543">Check AI Responses and Flag Inaccuracies</text><rect fill="#E8E8E8" height="34.1328" rx="12.5" ry="12.5" style="stroke:#000000;stroke-width:0.5;" width="210" x="188.875" y="1698.1855"/><text fill="#000000" font-family="sans-serif" font-size="12" lengthAdjust="spacing" textLength="190" x="198.875" y="1719.7871">Add Corrections for AI Retraining</text><rect fill="none" height="245.0195" style="stroke:#000000;stroke-width:1.5;" width="238" x="174.875" y="1754.3184"/><path d="M257.875,1754.3184 L257.875,1763.8066 L247.875,1773.8066 L174.875,1773.8066 " fill="none" style="stroke:#000000;stroke-width:1.5;"/><text fill="#000000" font-family="sans-serif" font-size="14" lengthAdjust="spacing" textLength="73" x="177.875" y="1768.8535">Supervisor</text><rect fill="#E8E8E8" height="34.1328" rx="12.5" ry="12.5" style="stroke:#000000;stroke-width:0.5;" width="208" x="189.875" y="1790.8066"/><text fill="#000000" font-family="sans-serif" font-size="12" lengthAdjust="spacing" textLength="188" x="199.875" y="1812.4082">Monitor Overall Student Progress</text><rect fill="#E8E8E8" height="34.1328" rx="12.5" ry="12.5" style="stroke:#000000;stroke-width:0.5;" width="191" x="198.375" y="1844.9395"/><text fill="#000000" font-family="sans-serif" font-size="12" lengthAdjust="spacing" textLength="171" x="208.375" y="1866.541">Review Teacher Contributions</text><rect fill="#E8E8E8" height="34.1328" rx="12.5" ry="12.5" style="stroke:#000000;stroke-width:0.5;" width="212" x="187.875" y="1899.0723"/><text fill="#000000" font-family="sans-serif" font-size="12" lengthAdjust="spacing" textLength="192" x="197.875" y="1920.6738">Review Expert Recommendations</text><rect fill="#E8E8E8" height="34.1328" rx="12.5" ry="12.5" style="stroke:#000000;stroke-width:0.5;" width="218" x="184.875" y="1953.2051"/><text fill="#000000" font-family="sans-serif" font-size="12" lengthAdjust="spacing" textLength="198" x="194.875" y="1974.8066">Approve and Apply Improvements</text><rect fill="#E8E8E8" height="34.1328" rx="12.5" ry="12.5" style="stroke:#000000;stroke-width:0.5;" width="231" x="178.375" y="2019.3379"/><text fill="#000000" font-family="sans-serif" font-size="12" lengthAdjust="spacing" textLength="211" x="188.375" y="2040.9395">Compile Session Summary &amp; Reports</text><ellipse cx="293.875" cy="2084.4707" fill="none" rx="11" ry="11" style="stroke:#222222;stroke-width:1.0;"/><ellipse cx="293.875" cy="2084.4707" fill="#222222" rx="6" ry="6" style="stroke:#222222;stroke-width:1.0;"/><line style="stroke:#000000;stroke-width:1.0;" x1="293.875" x2="293.875" y1="97.9766" y2="117.9766"/><polygon fill="#000000" points="289.875,107.9766,293.875,117.9766,297.875,107.9766,293.875,111.9766" style="stroke:#000000;stroke-width:1.0;"/><line style="stroke:#000000;stroke-width:1.0;" x1="293.875" x2="293.875" y1="152.1094" y2="172.1094"/><polygon fill="#000000" points="289.875,162.1094,293.875,172.1094,297.875,162.1094,293.875,166.1094" style="stroke:#000000;stroke-width:1.0;"/><line style="stroke:#000000;stroke-width:1.0;" x1="293.875" x2="293.875" y1="206.2422" y2="226.2422"/><polygon fill="#000000" points="289.875,216.2422,293.875,226.2422,297.875,216.2422,293.875,220.2422" style="stroke:#000000;stroke-width:1.0;"/><line style="stroke:#000000;stroke-width:1.0;" x1="293.875" x2="293.875" y1="260.375" y2="280.375"/><polygon fill="#000000" points="289.875,270.375,293.875,280.375,297.875,270.375,293.875,274.375" style="stroke:#000000;stroke-width:1.0;"/><line style="stroke:#000000;stroke-width:1.0;" x1="122" x2="122" y1="495.2617" y2="530.2617"/><polygon fill="#000000" points="118,520.2617,122,530.2617,126,520.2617,122,524.2617" style="stroke:#000000;stroke-width:1.0;"/><line style="stroke:#000000;stroke-width:1.0;" x1="420.75" x2="354.5" y1="473.1289" y2="473.1289"/><line style="stroke:#000000;stroke-width:1.0;" x1="354.5" x2="354.5" y1="473.1289" y2="495.1289"/><polygon fill="#000000" points="350.5,485.1289,354.5,495.1289,358.5,485.1289,354.5,489.1289" style="stroke:#000000;stroke-width:1.0;"/><line style="stroke:#000000;stroke-width:1.0;" x1="510.75" x2="577" y1="473.1289" y2="473.1289"/><line style="stroke:#000000;stroke-width:1.0;" x1="577" x2="577" y1="473.1289" y2="495.1289"/><polygon fill="#000000" points="573,485.1289,577,495.1289,581,485.1289,577,489.1289" style="stroke:#000000;stroke-width:1.0;"/><line style="stroke:#000000;stroke-width:1.0;" x1="354.5" x2="354.5" y1="529.2617" y2="547.2617"/><line style="stroke:#000000;stroke-width:1.0;" x1="354.5" x2="453.75" y1="547.2617" y2="547.2617"/><polygon fill="#000000" points="443.75,543.2617,453.75,547.2617,443.75,551.2617,447.75,547.2617" style="stroke:#000000;stroke-width:1.0;"/><line style="stroke:#000000;stroke-width:1.0;" x1="577" x2="577" y1="529.2617" y2="547.2617"/><line style="stroke:#000000;stroke-width:1.0;" x1="577" x2="477.75" y1="547.2617" y2="547.2617"/><polygon fill="#000000" points="487.75,543.2617,477.75,547.2617,487.75,551.2617,483.75,547.2617" style="stroke:#000000;stroke-width:1.0;"/><line style="stroke:#000000;stroke-width:1.0;" x1="234.875" x2="122" y1="439.1289" y2="439.1289"/><line style="stroke:#000000;stroke-width:1.0;" x1="122" x2="122" y1="439.1289" y2="461.1289"/><polygon fill="#000000" points="118,451.1289,122,461.1289,126,451.1289,122,455.1289" style="stroke:#000000;stroke-width:1.0;"/><line style="stroke:#000000;stroke-width:1.0;" x1="352.875" x2="465.75" y1="439.1289" y2="439.1289"/><line style="stroke:#000000;stroke-width:1.0;" x1="465.75" x2="465.75" y1="439.1289" y2="461.1289"/><polygon fill="#000000" points="461.75,451.1289,465.75,461.1289,469.75,451.1289,465.75,455.1289" style="stroke:#000000;stroke-width:1.0;"/><line style="stroke:#000000;stroke-width:1.0;" x1="122" x2="122" y1="564.3945" y2="582.3945"/><line style="stroke:#000000;stroke-width:1.0;" x1="122" x2="281.875" y1="582.3945" y2="582.3945"/><polygon fill="#000000" points="271.875,578.3945,281.875,582.3945,271.875,586.3945,275.875,582.3945" style="stroke:#000000;stroke-width:1.0;"/><line style="stroke:#000000;stroke-width:1.0;" x1="465.75" x2="465.75" y1="559.2617" y2="582.3945"/><line style="stroke:#000000;stroke-width:1.0;" x1="465.75" x2="305.875" y1="582.3945" y2="582.3945"/><polygon fill="#000000" points="315.875,578.3945,305.875,582.3945,315.875,586.3945,311.875,582.3945" style="stroke:#000000;stroke-width:1.0;"/><line style="stroke:#000000;stroke-width:1.0;" x1="293.875" x2="293.875" y1="407.1289" y2="427.1289"/><polygon fill="#000000" points="289.875,417.1289,293.875,427.1289,297.875,417.1289,293.875,421.1289" style="stroke:#000000;stroke-width:1.0;"/><line style="stroke:#000000;stroke-width:1.0;" x1="293.875" x2="293.875" y1="594.3945" y2="614.3945"/><polygon fill="#000000" points="289.875,604.3945,293.875,614.3945,297.875,604.3945,293.875,608.3945" style="stroke:#000000;stroke-width:1.0;"/><line style="stroke:#000000;stroke-width:1.0;" x1="293.875" x2="293.875" y1="648.5273" y2="668.5273"/><polygon fill="#000000" points="289.875,658.5273,293.875,668.5273,297.875,658.5273,293.875,662.5273" style="stroke:#000000;stroke-width:1.0;"/><line style="stroke:#000000;stroke-width:1.0;" x1="219.375" x2="189.875" y1="734.6602" y2="734.6602"/><line style="stroke:#000000;stroke-width:1.0;" x1="189.875" x2="189.875" y1="734.6602" y2="756.6602"/><polygon fill="#000000" points="185.875,746.6602,189.875,756.6602,193.875,746.6602,189.875,750.6602" style="stroke:#000000;stroke-width:1.0;"/><line style="stroke:#000000;stroke-width:1.0;" x1="368.375" x2="397.875" y1="734.6602" y2="734.6602"/><line style="stroke:#000000;stroke-width:1.0;" x1="397.875" x2="397.875" y1="734.6602" y2="756.6602"/><polygon fill="#000000" points="393.875,746.6602,397.875,756.6602,401.875,746.6602,397.875,750.6602" style="stroke:#000000;stroke-width:1.0;"/><line style="stroke:#000000;stroke-width:1.0;" x1="189.875" x2="189.875" y1="790.793" y2="808.793"/><line style="stroke:#000000;stroke-width:1.0;" x1="189.875" x2="281.875" y1="808.793" y2="808.793"/><polygon fill="#000000" points="271.875,804.793,281.875,808.793,271.875,812.793,275.875,808.793" style="stroke:#000000;stroke-width:1.0;"/><line style="stroke:#000000;stroke-width:1.0;" x1="397.875" x2="397.875" y1="790.793" y2="808.793"/><line style="stroke:#000000;stroke-width:1.0;" x1="397.875" x2="305.875" y1="808.793" y2="808.793"/><polygon fill="#000000" points="315.875,804.793,305.875,808.793,315.875,812.793,311.875,808.793" style="stroke:#000000;stroke-width:1.0;"/><line style="stroke:#000000;stroke-width:1.0;" x1="293.875" x2="293.875" y1="702.6602" y2="722.6602"/><polygon fill="#000000" points="289.875,712.6602,293.875,722.6602,297.875,712.6602,293.875,716.6602" style="stroke:#000000;stroke-width:1.0;"/><line style="stroke:#000000;stroke-width:1.0;" x1="293.875" x2="293.875" y1="864.793" y2="889.2705"/><polygon fill="#000000" points="289.875,879.2705,293.875,889.2705,297.875,879.2705,293.875,883.2705" style="stroke:#000000;stroke-width:1.0;"/><line style="stroke:#000000;stroke-width:1.0;" x1="366.375" x2="378.375" y1="852.793" y2="852.793"/><polygon fill="#000000" points="374.375,896.3369,378.375,906.3369,382.375,896.3369,378.375,900.3369" style="stroke:#000000;stroke-width:1.0;"/><line style="stroke:#000000;stroke-width:1.0;" x1="378.375" x2="378.375" y1="852.793" y2="955.4033"/><line style="stroke:#000000;stroke-width:1.0;" x1="378.375" x2="305.875" y1="955.4033" y2="955.4033"/><polygon fill="#000000" points="315.875,951.4033,305.875,955.4033,315.875,959.4033,311.875,955.4033" style="stroke:#000000;stroke-width:1.0;"/><line style="stroke:#000000;stroke-width:1.0;" x1="293.875" x2="293.875" y1="923.4033" y2="943.4033"/><polygon fill="#000000" points="289.875,933.4033,293.875,943.4033,297.875,933.4033,293.875,937.4033" style="stroke:#000000;stroke-width:1.0;"/><line style="stroke:#000000;stroke-width:1.0;" x1="293.875" x2="293.875" y1="820.793" y2="840.793"/><polygon fill="#000000" points="289.875,830.793,293.875,840.793,297.875,830.793,293.875,834.793" style="stroke:#000000;stroke-width:1.0;"/><line style="stroke:#000000;stroke-width:1.0;" x1="293.875" x2="293.875" y1="967.4033" y2="987.4033"/><polygon fill="#000000" points="289.875,977.4033,293.875,987.4033,297.875,977.4033,293.875,981.4033" style="stroke:#000000;stroke-width:1.0;"/><line style="stroke:#000000;stroke-width:1.0;" x1="293.875" x2="293.875" y1="1021.5361" y2="1041.5361"/><polygon fill="#000000" points="289.875,1031.5361,293.875,1041.5361,297.875,1031.5361,293.875,1035.5361" style="stroke:#000000;stroke-width:1.0;"/><line style="stroke:#000000;stroke-width:1.0;" x1="293.875" x2="293.875" y1="1075.6689" y2="1095.6689"/><polygon fill="#000000" points="289.875,1085.6689,293.875,1095.6689,297.875,1085.6689,293.875,1089.6689" style="stroke:#000000;stroke-width:1.0;"/><line style="stroke:#000000;stroke-width:1.0;" x1="293.875" x2="293.875" y1="314.5078" y2="372.9961"/><polygon fill="#000000" points="289.875,362.9961,293.875,372.9961,297.875,362.9961,293.875,366.9961" style="stroke:#000000;stroke-width:1.0;"/><line style="stroke:#000000;stroke-width:1.0;" x1="293.875" x2="293.875" y1="1222.4229" y2="1242.4229"/><polygon fill="#000000" points="289.875,1232.4229,293.875,1242.4229,297.875,1232.4229,293.875,1236.4229" style="stroke:#000000;stroke-width:1.0;"/><line style="stroke:#000000;stroke-width:1.0;" x1="293.875" x2="293.875" y1="1276.5557" y2="1296.5557"/><polygon fill="#000000" points="289.875,1286.5557,293.875,1296.5557,297.875,1286.5557,293.875,1290.5557" style="stroke:#000000;stroke-width:1.0;"/><line style="stroke:#000000;stroke-width:1.0;" x1="293.875" x2="293.875" y1="1374.6885" y2="1399.166"/><polygon fill="#000000" points="289.875,1389.166,293.875,1399.166,297.875,1389.166,293.875,1393.166" style="stroke:#000000;stroke-width:1.0;"/><line style="stroke:#000000;stroke-width:1.0;" x1="359.875" x2="402.875" y1="1362.6885" y2="1362.6885"/><polygon fill="#000000" points="398.875,1406.2324,402.875,1416.2324,406.875,1406.2324,402.875,1410.2324" style="stroke:#000000;stroke-width:1.0;"/><line style="stroke:#000000;stroke-width:1.0;" x1="402.875" x2="402.875" y1="1362.6885" y2="1465.2988"/><line style="stroke:#000000;stroke-width:1.0;" x1="402.875" x2="305.875" y1="1465.2988" y2="1465.2988"/><polygon fill="#000000" points="315.875,1461.2988,305.875,1465.2988,315.875,1469.2988,311.875,1465.2988" style="stroke:#000000;stroke-width:1.0;"/><line style="stroke:#000000;stroke-width:1.0;" x1="293.875" x2="293.875" y1="1433.2988" y2="1453.2988"/><polygon fill="#000000" points="289.875,1443.2988,293.875,1453.2988,297.875,1443.2988,293.875,1447.2988" style="stroke:#000000;stroke-width:1.0;"/><line style="stroke:#000000;stroke-width:1.0;" x1="293.875" x2="293.875" y1="1330.6885" y2="1350.6885"/><polygon fill="#000000" points="289.875,1340.6885,293.875,1350.6885,297.875,1340.6885,293.875,1344.6885" style="stroke:#000000;stroke-width:1.0;"/><line style="stroke:#000000;stroke-width:1.0;" x1="293.875" x2="293.875" y1="1129.8018" y2="1188.29"/><polygon fill="#000000" points="289.875,1178.29,293.875,1188.29,297.875,1178.29,293.875,1182.29" style="stroke:#000000;stroke-width:1.0;"/><line style="stroke:#000000;stroke-width:1.0;" x1="293.875" x2="293.875" y1="1569.9199" y2="1589.9199"/><polygon fill="#000000" points="289.875,1579.9199,293.875,1589.9199,297.875,1579.9199,293.875,1583.9199" style="stroke:#000000;stroke-width:1.0;"/><line style="stroke:#000000;stroke-width:1.0;" x1="293.875" x2="293.875" y1="1624.0527" y2="1644.0527"/><polygon fill="#000000" points="289.875,1634.0527,293.875,1644.0527,297.875,1634.0527,293.875,1638.0527" style="stroke:#000000;stroke-width:1.0;"/><line style="stroke:#000000;stroke-width:1.0;" x1="293.875" x2="293.875" y1="1678.1855" y2="1698.1855"/><polygon fill="#000000" points="289.875,1688.1855,293.875,1698.1855,297.875,1688.1855,293.875,1692.1855" style="stroke:#000000;stroke-width:1.0;"/><line style="stroke:#000000;stroke-width:1.0;" x1="293.875" x2="293.875" y1="1477.2988" y2="1535.7871"/><polygon fill="#000000" points="289.875,1525.7871,293.875,1535.7871,297.875,1525.7871,293.875,1529.7871" style="stroke:#000000;stroke-width:1.0;"/><line style="stroke:#000000;stroke-width:1.0;" x1="293.875" x2="293.875" y1="1824.9395" y2="1844.9395"/><polygon fill="#000000" points="289.875,1834.9395,293.875,1844.9395,297.875,1834.9395,293.875,1838.9395" style="stroke:#000000;stroke-width:1.0;"/><line style="stroke:#000000;stroke-width:1.0;" x1="293.875" x2="293.875" y1="1879.0723" y2="1899.0723"/><polygon fill="#000000" points="289.875,1889.0723,293.875,1899.0723,297.875,1889.0723,293.875,1893.0723" style="stroke:#000000;stroke-width:1.0;"/><line style="stroke:#000000;stroke-width:1.0;" x1="293.875" x2="293.875" y1="1933.2051" y2="1953.2051"/><polygon fill="#000000" points="289.875,1943.2051,293.875,1953.2051,297.875,1943.2051,293.875,1947.2051" style="stroke:#000000;stroke-width:1.0;"/><line style="stroke:#000000;stroke-width:1.0;" x1="293.875" x2="293.875" y1="1732.3184" y2="1790.8066"/><polygon fill="#000000" points="289.875,1780.8066,293.875,1790.8066,297.875,1780.8066,293.875,1784.8066" style="stroke:#000000;stroke-width:1.0;"/><line style="stroke:#000000;stroke-width:1.0;" x1="293.875" x2="293.875" y1="1987.3379" y2="2019.3379"/><polygon fill="#000000" points="289.875,2009.3379,293.875,2019.3379,297.875,2009.3379,293.875,2013.3379" style="stroke:#000000;stroke-width:1.0;"/><line style="stroke:#000000;stroke-width:1.0;" x1="293.875" x2="293.875" y1="2053.4707" y2="2073.4707"/><polygon fill="#000000" points="289.875,2063.4707,293.875,2073.4707,297.875,2063.4707,293.875,2067.4707" style="stroke:#000000;stroke-width:1.0;"/><!--SRC=[TLLTRjj647xNAGO9aDf0Wg1f2nGIWe2Hg4Q0BQiYPI2FQ-w8d9ha4hjBoKfHeAyzGW_GY-KadIMvf6n9rCjwT_w-RxuPMx8vGY15PMc7S8D2brIc41sCnGBUGP3m0za3p4YaMXGmCezKLi8T7qJoc6fLbtAgSgNXzRpvZYo4z_vp1Fn5LcZRsdxEsRcv3BtxSCMv2bNApoVnFxZVCnEb9UgN_kTlvweyIHvehVOdxY_pXh-wt-YlqUW7-DX-S1CiG_Xn356ycONBsD-F6BWbIwg4Lv6j9PRsLOVUEFJDQTmGSSGs6iCUa_OnB5EH8kp9PcnYJFyGc4VulKRZeXkukbUKuFiOd-pxMDL9TjsPhRJQaKG82-KiHGvl67jI6uWevJ_Dv0oI3sC85X1luhlrEIZkhRPAUopZW0CTlc4N-8rFDgHmLhI5guw4rX3bfskm6PPmzHNDTMFKX9joRwYiiGCCIwKBaUU7oM2onhtGigLbfGmrWfqZIYV3rWvpWt2rL4FWjWBDGU4BfTdvx2rhWii3KKgussvHmrJaXUkD7u2XajCiNNqL2ki1D6NUawcP_e2aEN8l9Mr7mydpQVQSrRFLjxdhQQmP9DUIr7mul8LM8mMRllNKJqOzvzuEll_p7yGPmyzKVedw6Pag5mSEdX7kcfWy0JB5Ivps0kEc6Qlhv5md1cX7BRYXWYo4JmdRNfH2h2bDcOeWHvuHgs0bDDTq4dUygQIms3t3J9ZiGR529izUOnH9nj4kF4TrXNf7XgUS-wUqFJSRFurX5Qml37cRlf-BUy8zJ3FAvVU__pN0LAKDz9VvrvYWewrZfW7hcnt8Fsfpj1v-KpnHm2NEQBkbfCwz6XsrCHNO4Rjki5xYbVUiNpIDp2F1wNrzn-oU4l3p6E8mc7u9p-w6ZkAUWasLAo6xGMZglcMgDVLhONohIk9bqgjzK3Cik8H4yAEtdMRebBzWTARYU6YQwkUvIDbOj4ed7BYJh4kjCMctv9RJDCvM2t9idclmBxp6DwjmVR-8pg-_GIOzIe_XReUQDrMFvJcZtEUTKuINeTjpcXxguzdkJCAdoWcUXQ4AfeBbUMGJL1KFNRkV-9mVO54qDuwqbmjzlbW6DupezZPOV-tXy8ujAkB_zbu4KLqKGXzuURVIvp36gkf_]--></g></svg>