<?xml version="1.0" encoding="UTF-8"?>
<svg xmlns="http://www.w3.org/2000/svg" xmlns:xlink="http://www.w3.org/1999/xlink" width="854" height="480" viewBox="0 0 854 480">
<defs>
<g>
<g id="glyph-0-0">
<path d="M 3.21875 -0.402344 L 2.589844 -0.402344 C 2.304688 -0.402344 2.113281 -0.46875 2.015625 -0.605469 C 1.867188 -0.828125 1.792969 -1.164062 1.792969 -1.609375 C 1.792969 -1.703125 1.800781 -1.777344 1.8125 -1.828125 L 1.308594 -1.320312 L 1.269531 -1.316406 C 1.105469 -1.316406 0.878906 -1.414062 0.582031 -1.609375 C 0.261719 -1.8125 0.105469 -1.988281 0.105469 -2.132812 C 0.105469 -2.222656 0.15625 -2.363281 0.257812 -2.554688 C 0.492188 -3.011719 0.835938 -3.316406 1.289062 -3.472656 C 1.476562 -3.535156 1.613281 -3.570312 1.695312 -3.570312 L 1.695312 -3.976562 L 2.152344 -4.578125 L 2.152344 -1.652344 C 2.160156 -1.332031 2.269531 -1.171875 2.488281 -1.171875 L 3.21875 -1.171875 Z M 1.753906 -2.574219 C 1.753906 -3.015625 1.738281 -3.246094 1.707031 -3.265625 C 1.441406 -2.980469 1.101562 -2.78125 0.6875 -2.667969 C 0.691406 -2.609375 0.726562 -2.546875 0.796875 -2.480469 C 0.867188 -2.414062 0.949219 -2.347656 1.042969 -2.289062 C 1.136719 -2.230469 1.238281 -2.175781 1.339844 -2.136719 C 1.441406 -2.09375 1.523438 -2.074219 1.585938 -2.074219 C 1.695312 -2.074219 1.753906 -2.242188 1.753906 -2.574219 Z M 2.132812 -5.28125 L 1.289062 -5.820312 L 1.644531 -6.390625 L 2.492188 -5.882812 Z M 0.109375 -5.761719 L 0.449219 -6.359375 L 1.289062 -5.820312 L 0.945312 -5.261719 Z "/>
</g>
<g id="glyph-0-1">
<path d="M 3.296875 -0.402344 L -0.0625 -0.402344 L -0.0625 -1.171875 L 1.992188 -1.171875 C 2.035156 -1.171875 2.058594 -1.210938 2.058594 -1.28125 C 2.058594 -1.335938 2.039062 -1.414062 2.007812 -1.511719 C 1.972656 -1.613281 1.933594 -1.714844 1.886719 -1.8125 C 1.835938 -1.910156 1.785156 -2 1.734375 -2.074219 C 1.683594 -2.148438 1.636719 -2.1875 1.597656 -2.1875 L 1.964844 -3.035156 C 2.140625 -2.832031 2.292969 -2.539062 2.417969 -2.152344 C 2.542969 -1.785156 2.609375 -1.460938 2.609375 -1.171875 L 3.296875 -1.171875 Z M 2.132812 1.78125 L 1.289062 1.242188 L 1.644531 0.671875 L 2.492188 1.175781 Z M 0.109375 1.296875 L 0.449219 0.703125 L 1.289062 1.242188 L 0.945312 1.800781 Z "/>
</g>
<g id="glyph-0-2">
<path d="M 2.609375 -1.097656 C 2.609375 -0.632812 2.542969 -0.402344 2.414062 -0.402344 L -0.0625 -0.402344 L -0.0625 -1.171875 L 1.992188 -1.171875 C 2.035156 -1.171875 2.058594 -1.210938 2.058594 -1.28125 C 2.058594 -1.335938 2.039062 -1.414062 2.007812 -1.511719 C 1.972656 -1.613281 1.933594 -1.714844 1.886719 -1.8125 C 1.835938 -1.910156 1.785156 -2 1.734375 -2.074219 C 1.683594 -2.148438 1.636719 -2.1875 1.597656 -2.1875 L 1.953125 -3.023438 C 2.117188 -2.949219 2.269531 -2.65625 2.414062 -2.144531 C 2.542969 -1.691406 2.609375 -1.34375 2.609375 -1.097656 Z M 2.308594 -5.167969 L 2.191406 -4.78125 C 1.867188 -4.675781 1.628906 -4.574219 1.484375 -4.46875 L 0.898438 -3.988281 C 0.886719 -4 0.878906 -4.015625 0.878906 -4.039062 C 0.878906 -4.207031 0.941406 -4.355469 1.0625 -4.480469 C 0.832031 -4.632812 0.714844 -4.78125 0.714844 -4.917969 C 0.714844 -5.046875 0.746094 -5.171875 0.804688 -5.285156 C 0.867188 -5.402344 0.945312 -5.503906 1.042969 -5.59375 C 1.144531 -5.683594 1.257812 -5.753906 1.386719 -5.804688 C 1.519531 -5.855469 1.652344 -5.882812 1.792969 -5.882812 C 1.875 -5.882812 1.949219 -5.875 2.011719 -5.855469 L 1.875 -5.464844 C 1.867188 -5.511719 1.773438 -5.535156 1.59375 -5.535156 C 1.519531 -5.535156 1.445312 -5.519531 1.367188 -5.496094 C 1.292969 -5.46875 1.222656 -5.4375 1.164062 -5.394531 C 1.101562 -5.351562 1.054688 -5.300781 1.019531 -5.246094 C 0.984375 -5.1875 0.964844 -5.128906 0.964844 -5.0625 C 0.964844 -5.023438 0.996094 -4.984375 1.0625 -4.953125 C 1.128906 -4.917969 1.214844 -4.898438 1.320312 -4.898438 C 1.363281 -4.898438 1.394531 -4.902344 1.421875 -4.910156 Z "/>
</g>
<g id="glyph-0-3">
<path d="M 4.105469 -0.402344 L 3.3125 -0.402344 C 3.28125 -0.125 3.203125 0.136719 3.082031 0.382812 C 2.957031 0.628906 2.796875 0.84375 2.601562 1.023438 C 2.40625 1.203125 2.1875 1.347656 1.933594 1.453125 C 1.683594 1.558594 1.421875 1.613281 1.140625 1.613281 C 0.75 1.613281 0.378906 1.457031 0.0234375 1.148438 C -0.324219 0.84375 -0.535156 0.492188 -0.605469 0.0976562 C -0.488281 0.3125 -0.253906 0.523438 0.101562 0.722656 C 0.457031 0.925781 0.761719 1.027344 1.011719 1.027344 C 1.21875 1.027344 1.421875 0.992188 1.625 0.921875 C 1.828125 0.847656 2.011719 0.75 2.183594 0.621094 C 2.351562 0.496094 2.496094 0.347656 2.621094 0.175781 C 2.746094 0.00390625 2.835938 -0.179688 2.886719 -0.382812 C 2.847656 -0.375 2.8125 -0.371094 2.777344 -0.371094 C 2.609375 -0.371094 2.453125 -0.398438 2.308594 -0.453125 C 2.164062 -0.507812 2.035156 -0.582031 1.925781 -0.679688 C 1.816406 -0.777344 1.734375 -0.886719 1.667969 -1.015625 C 1.605469 -1.144531 1.574219 -1.285156 1.574219 -1.429688 C 1.574219 -1.65625 1.683594 -1.957031 1.902344 -2.332031 C 2.136719 -2.734375 2.359375 -2.9375 2.5625 -2.9375 C 2.832031 -2.9375 3.046875 -2.699219 3.207031 -2.226562 C 3.332031 -1.871094 3.390625 -1.523438 3.390625 -1.171875 L 4.105469 -1.171875 Z M 2.980469 -1.269531 C 2.980469 -1.355469 2.96875 -1.441406 2.9375 -1.527344 C 2.910156 -1.617188 2.867188 -1.695312 2.816406 -1.765625 C 2.761719 -1.835938 2.703125 -1.894531 2.632812 -1.9375 C 2.5625 -1.984375 2.488281 -2.003906 2.410156 -2.003906 C 2.363281 -2.003906 2.316406 -1.992188 2.277344 -1.964844 C 2.234375 -1.9375 2.199219 -1.898438 2.164062 -1.855469 C 2.128906 -1.8125 2.105469 -1.765625 2.082031 -1.714844 C 2.0625 -1.664062 2.054688 -1.617188 2.054688 -1.570312 C 2.054688 -1.519531 2.082031 -1.46875 2.136719 -1.421875 C 2.191406 -1.371094 2.257812 -1.328125 2.339844 -1.292969 C 2.421875 -1.257812 2.507812 -1.226562 2.601562 -1.207031 C 2.695312 -1.183594 2.78125 -1.171875 2.855469 -1.171875 C 2.941406 -1.171875 2.980469 -1.207031 2.980469 -1.269531 Z "/>
</g>
<g id="glyph-0-4">
<path d="M 8.890625 -0.402344 L 2.832031 -0.402344 C 2.292969 -0.402344 1.949219 -0.5 1.792969 -0.691406 C 1.667969 -0.5 1.050781 -0.402344 -0.0625 -0.402344 L -0.0625 -1.171875 C 0.902344 -1.171875 1.46875 -1.21875 1.632812 -1.3125 C 1.632812 -1.335938 1.636719 -1.367188 1.636719 -1.402344 C 1.640625 -1.433594 1.640625 -1.472656 1.640625 -1.519531 C 1.640625 -1.714844 1.625 -1.839844 1.597656 -1.898438 L 2.191406 -2.554688 C 2.234375 -2.40625 2.253906 -2.25 2.253906 -2.085938 C 2.253906 -1.820312 2.207031 -1.554688 2.109375 -1.292969 C 2.71875 -1.210938 3.046875 -1.167969 3.085938 -1.167969 C 3.421875 -1.167969 3.988281 -1.472656 4.785156 -2.074219 C 5.585938 -2.683594 6.121094 -2.988281 6.398438 -2.988281 C 6.488281 -2.988281 6.578125 -2.96875 6.675781 -2.921875 C 7.472656 -2.5625 7.933594 -2.25 8.058594 -1.988281 C 8.09375 -1.917969 8.117188 -1.839844 8.136719 -1.75 C 8.152344 -1.660156 8.164062 -1.554688 8.164062 -1.429688 C 8.164062 -1.316406 8.152344 -1.230469 8.132812 -1.171875 L 8.890625 -1.171875 Z M 7.691406 -1.421875 C 7.691406 -1.511719 7.464844 -1.667969 7.011719 -1.886719 C 6.574219 -2.09375 6.285156 -2.199219 6.152344 -2.199219 C 5.980469 -2.199219 5.679688 -2.066406 5.257812 -1.800781 C 4.839844 -1.542969 4.585938 -1.335938 4.496094 -1.171875 L 5.539062 -1.171875 C 6.257812 -1.164062 6.796875 -1.1875 7.15625 -1.238281 C 7.511719 -1.289062 7.691406 -1.351562 7.691406 -1.421875 Z M 6.789062 -4.570312 L 6.417969 -3.9375 L 5.515625 -4.464844 L 5.863281 -5.097656 Z "/>
</g>
<g id="glyph-0-5">
<path d="M 2.039062 -5.125 L 1.707031 -4.457031 L 1.707031 -0.527344 L 1.503906 -0.402344 L -0.0625 -0.402344 L -0.0625 -1.171875 L 1.105469 -1.171875 L 1.105469 -4.816406 L 0.890625 -5.640625 L 1.597656 -6.351562 L 1.660156 -5.523438 Z "/>
</g>
<g id="glyph-0-6">
<path d="M 2.070312 -1.261719 L 1.460938 -0.402344 L 1.460938 -5.613281 L 2.070312 -6.351562 Z "/>
</g>
<g id="glyph-0-7">
<rect x="0" y="0" width="0" height="0" mask="url(#mask-0)"/>
</g>
<g id="glyph-0-8">
<path d="M 3.167969 -1.148438 C 3.167969 -0.738281 3.140625 -0.503906 3.089844 -0.445312 C 3.070312 -0.417969 2.945312 -0.402344 2.710938 -0.402344 L -0.0625 -0.402344 L -0.0625 -1.171875 L 2.265625 -1.171875 L 1.460938 -1.511719 C 1.167969 -1.683594 1.019531 -1.90625 1.019531 -2.1875 C 1.019531 -2.457031 1.164062 -2.792969 1.445312 -3.199219 C 1.746094 -3.621094 2.023438 -3.832031 2.273438 -3.832031 C 2.613281 -3.832031 2.863281 -3.457031 3.019531 -2.699219 C 3.070312 -2.453125 3.109375 -2.203125 3.132812 -1.945312 C 3.15625 -1.691406 3.167969 -1.425781 3.167969 -1.148438 Z M 2.75 -1.785156 C 2.75 -1.949219 2.664062 -2.191406 2.5 -2.507812 C 2.320312 -2.847656 2.160156 -3.019531 2.015625 -3.019531 C 1.976562 -3.019531 1.925781 -2.992188 1.863281 -2.945312 C 1.800781 -2.898438 1.742188 -2.839844 1.6875 -2.777344 C 1.628906 -2.710938 1.578125 -2.648438 1.53125 -2.582031 C 1.484375 -2.515625 1.457031 -2.460938 1.445312 -2.417969 L 2.726562 -1.722656 C 2.742188 -1.734375 2.75 -1.753906 2.75 -1.785156 Z M 2.515625 -4.738281 L 1.671875 -5.277344 L 2.027344 -5.847656 L 2.875 -5.339844 Z M 0.492188 -5.21875 L 0.832031 -5.816406 L 1.671875 -5.277344 L 1.328125 -4.71875 Z "/>
</g>
<g id="glyph-0-9">
<path d="M 3.257812 -0.402344 L 2.339844 -0.402344 C 2.078125 -0.402344 1.867188 -0.433594 1.699219 -0.492188 C 1.53125 -0.550781 1.40625 -0.648438 1.328125 -0.777344 C 1.25 -0.90625 1.210938 -1.136719 1.210938 -1.46875 L 1.210938 -5.59375 L 1.8125 -6.351562 L 1.8125 -1.46875 C 1.8125 -1.273438 1.902344 -1.171875 2.085938 -1.171875 L 3.257812 -1.171875 Z "/>
</g>
<g id="glyph-0-10">
<path d="M 5.980469 -0.402344 L -0.0625 -0.402344 L -0.0625 -1.171875 L 0.554688 -1.171875 C 0.65625 -1.171875 0.765625 -1.179688 0.882812 -1.195312 C 1 -1.207031 1.109375 -1.222656 1.207031 -1.246094 C 1.300781 -1.265625 1.382812 -1.292969 1.449219 -1.316406 C 1.515625 -1.34375 1.546875 -1.371094 1.546875 -1.398438 L 1.546875 -4.90625 L 1.363281 -5.75 L 1.914062 -6.433594 L 1.964844 -5.613281 L 2.351562 -5.222656 L 2.015625 -4.558594 L 2.015625 -1.691406 C 2.050781 -1.773438 2.25 -1.953125 2.621094 -2.234375 C 3.082031 -2.589844 3.484375 -2.765625 3.828125 -2.765625 C 3.945312 -2.765625 4.054688 -2.742188 4.164062 -2.695312 C 4.652344 -2.496094 4.957031 -2.320312 5.066406 -2.175781 C 5.195312 -2 5.261719 -1.667969 5.261719 -1.171875 L 5.980469 -1.171875 Z M 4.851562 -1.269531 C 4.851562 -1.484375 4.664062 -1.664062 4.292969 -1.8125 C 4 -1.925781 3.726562 -1.984375 3.472656 -1.984375 C 3.332031 -1.984375 3.078125 -1.878906 2.710938 -1.664062 C 2.339844 -1.445312 2.152344 -1.28125 2.152344 -1.167969 C 2.152344 -1.117188 2.515625 -1.089844 3.238281 -1.089844 C 4.3125 -1.089844 4.851562 -1.148438 4.851562 -1.269531 Z "/>
</g>
</g>
<image id="source-59" x="0" y="0" width="0" height="0"/>
<mask id="mask-0">
<use xlink:href="#source-59"/>
</mask>
</defs>
<g fill="rgb(100%, 100%, 100%)" fill-opacity="1">
<use xlink:href="#glyph-0-0" x="837" y="27.957031"/>
<use xlink:href="#glyph-0-1" x="840" y="27.957031"/>
<use xlink:href="#glyph-0-2" x="843" y="27.957031"/>
<use xlink:href="#glyph-0-3" x="845" y="27.957031"/>
<use xlink:href="#glyph-0-4" x="849" y="27.957031"/>
<use xlink:href="#glyph-0-5" x="857" y="27.957031"/>
<use xlink:href="#glyph-0-6" x="859" y="27.957031"/>
<use xlink:href="#glyph-0-7" x="862" y="27.957031"/>
<use xlink:href="#glyph-0-0" x="865" y="27.957031"/>
<use xlink:href="#glyph-0-8" x="868" y="27.957031"/>
<use xlink:href="#glyph-0-9" x="871" y="27.957031"/>
<use xlink:href="#glyph-0-10" x="874" y="27.957031"/>
<use xlink:href="#glyph-0-5" x="879" y="27.957031"/>
<use xlink:href="#glyph-0-6" x="881" y="27.957031"/>
</g>
</svg>
