<?xml version="1.0" encoding="UTF-8"?>
<svg xmlns="http://www.w3.org/2000/svg" xmlns:xlink="http://www.w3.org/1999/xlink" width="854" height="480" viewBox="0 0 854 480">
<defs>
<g>
<g id="glyph-0-0">
<path d="M 2.234375 -6.457031 L 1.898438 -5.832031 L 1.195312 -6.207031 L 1.519531 -6.828125 Z M 1.238281 -6.066406 L 0.90625 -5.4375 L 0.203125 -5.804688 L 0.523438 -6.433594 Z M 3.332031 -1.273438 L 2.714844 -1.273438 C 2.503906 -1.273438 2.320312 -1.449219 2.160156 -1.804688 C 2.042969 -2.070312 1.949219 -2.414062 1.875 -2.835938 C 1.789062 -2.671875 1.679688 -2.546875 1.546875 -2.457031 C 1.414062 -2.367188 1.273438 -2.320312 1.125 -2.320312 C 0.792969 -2.320312 0.515625 -2.34375 0.292969 -2.390625 C 0.0703125 -2.433594 -0.0390625 -2.492188 -0.0390625 -2.5625 C -0.0390625 -2.808594 0.121094 -3.085938 0.445312 -3.386719 C 0.769531 -3.691406 1.175781 -3.953125 1.664062 -4.179688 C 1.65625 -4.203125 1.644531 -4.265625 1.625 -4.363281 C 1.605469 -4.460938 1.597656 -4.523438 1.597656 -4.542969 C 1.597656 -4.640625 1.628906 -4.753906 1.695312 -4.875 C 1.75 -4.972656 1.824219 -5.074219 1.914062 -5.179688 C 1.941406 -5 1.972656 -4.824219 2.003906 -4.65625 C 2.035156 -4.488281 2.070312 -4.316406 2.109375 -4.136719 L 2.238281 -3.390625 C 2.3125 -2.980469 2.378906 -2.675781 2.433594 -2.476562 C 2.523438 -2.175781 2.617188 -2.027344 2.714844 -2.027344 L 3.332031 -2.027344 Z M 1.820312 -3.210938 L 1.734375 -3.683594 C 1.484375 -3.59375 1.285156 -3.503906 1.140625 -3.40625 C 0.996094 -3.308594 0.875 -3.179688 0.777344 -3.019531 C 0.835938 -2.996094 0.910156 -2.976562 0.988281 -2.960938 C 1.070312 -2.945312 1.183594 -2.9375 1.324219 -2.9375 C 1.496094 -2.9375 1.664062 -3.03125 1.820312 -3.210938 Z "/>
</g>
<g id="glyph-0-1">
<path d="M 2.238281 -6.210938 L 1.902344 -5.585938 L 1.199219 -5.960938 L 1.523438 -6.582031 Z M 1.242188 -5.820312 L 0.910156 -5.191406 L 0.207031 -5.554688 L 0.53125 -6.183594 Z M 2.378906 -1.273438 L -0.304688 -1.273438 L -0.304688 -2.027344 L 2.007812 -2.027344 C 2.007812 -2.285156 1.980469 -2.527344 1.917969 -2.753906 C 1.769531 -2.703125 1.652344 -2.667969 1.570312 -2.648438 C 1.4375 -2.613281 1.320312 -2.597656 1.21875 -2.597656 C 1.007812 -2.597656 0.835938 -2.648438 0.703125 -2.757812 C 0.550781 -2.878906 0.472656 -3.054688 0.472656 -3.28125 C 0.472656 -3.683594 0.546875 -4.035156 0.691406 -4.335938 C 0.851562 -4.671875 1.0625 -4.839844 1.324219 -4.839844 C 1.675781 -4.839844 1.949219 -4.5625 2.140625 -4.011719 C 2.300781 -3.554688 2.378906 -3.015625 2.378906 -2.398438 Z M 1.671875 -3.527344 C 1.632812 -3.632812 1.566406 -3.738281 1.476562 -3.847656 C 1.355469 -3.992188 1.238281 -4.0625 1.128906 -4.0625 C 1.050781 -4.0625 0.984375 -4.03125 0.933594 -3.964844 C 0.882812 -3.898438 0.859375 -3.824219 0.859375 -3.734375 C 0.859375 -3.5 0.988281 -3.386719 1.242188 -3.386719 C 1.308594 -3.386719 1.378906 -3.398438 1.453125 -3.425781 C 1.527344 -3.449219 1.601562 -3.484375 1.671875 -3.527344 Z "/>
</g>
<g id="glyph-0-2">
<path d="M 2.039062 -1.273438 L 1.433594 -1.273438 C 1.234375 -1.273438 1.078125 -1.351562 0.960938 -1.511719 C 0.855469 -1.648438 0.777344 -1.855469 0.722656 -2.132812 C 0.667969 -2.40625 0.628906 -2.746094 0.597656 -3.148438 C 0.582031 -3.472656 0.5625 -3.808594 0.542969 -4.152344 C 0.523438 -4.496094 0.5 -4.757812 0.472656 -4.9375 C 0.441406 -5.117188 0.398438 -5.261719 0.347656 -5.375 C 0.285156 -5.511719 0.195312 -5.632812 0.0820312 -5.738281 L 0.617188 -6.582031 C 0.730469 -6.234375 0.808594 -5.816406 0.855469 -5.335938 C 0.882812 -5.035156 0.914062 -4.320312 0.941406 -3.199219 C 0.992188 -2.683594 1.070312 -2.355469 1.167969 -2.210938 C 1.25 -2.089844 1.335938 -2.027344 1.433594 -2.027344 L 2.039062 -2.027344 Z "/>
</g>
<g id="glyph-0-3">
<path d="M 5.167969 -1.273438 L -0.304688 -1.273438 L -0.304688 -2.027344 L 0.359375 -2.03125 C 0.558594 -2.03125 0.742188 -2.058594 0.910156 -2.109375 C 1.109375 -2.171875 1.332031 -2.277344 1.578125 -2.429688 C 1.632812 -2.558594 1.675781 -2.695312 1.707031 -2.839844 C 1.738281 -2.988281 1.753906 -3.128906 1.753906 -3.265625 C 1.753906 -3.574219 1.726562 -3.914062 1.667969 -4.289062 C 1.625 -4.5625 1.558594 -4.878906 1.472656 -5.246094 C 1.425781 -5.4375 1.363281 -5.671875 1.289062 -5.945312 L 1.019531 -6.082031 C 1.039062 -6.253906 1.070312 -6.421875 1.109375 -6.585938 C 1.148438 -6.746094 1.203125 -6.902344 1.273438 -7.054688 C 1.320312 -6.917969 1.421875 -6.8125 1.589844 -6.738281 C 1.726562 -6.675781 1.898438 -6.636719 2.109375 -6.613281 C 2.082031 -6.316406 2.058594 -6.128906 2.042969 -6.046875 C 2.03125 -5.964844 2.003906 -5.867188 1.960938 -5.746094 C 1.941406 -5.75 1.886719 -5.765625 1.800781 -5.789062 L 1.746094 -5.808594 C 1.847656 -5.46875 1.929688 -5.121094 1.996094 -4.765625 C 2.058594 -4.40625 2.09375 -4.105469 2.09375 -3.863281 C 2.09375 -3.65625 2.070312 -3.429688 2.03125 -3.175781 C 2.015625 -3.085938 1.992188 -2.949219 1.953125 -2.761719 C 2.460938 -3.054688 2.785156 -3.230469 2.925781 -3.300781 C 3.355469 -3.503906 3.722656 -3.601562 4.027344 -3.601562 C 4.417969 -3.601562 4.710938 -3.488281 4.90625 -3.261719 C 5.082031 -3.050781 5.167969 -2.753906 5.167969 -2.371094 Z M 4.484375 -2.359375 C 4.484375 -2.507812 4.40625 -2.621094 4.257812 -2.699219 C 4.105469 -2.773438 3.886719 -2.8125 3.601562 -2.8125 C 3.390625 -2.8125 3.148438 -2.765625 2.875 -2.675781 C 2.648438 -2.597656 2.40625 -2.496094 2.152344 -2.359375 C 1.964844 -2.261719 1.769531 -2.152344 1.570312 -2.027344 L 3.460938 -2.027344 C 4.144531 -2.027344 4.484375 -2.136719 4.484375 -2.359375 Z "/>
</g>
<g id="glyph-0-4">
<path d="M 1.839844 -1.273438 L -0.304688 -1.273438 L -0.304688 -2.027344 L 1.402344 -2.027344 L 0.886719 -5.707031 L 0.660156 -5.816406 C 0.660156 -6.015625 0.675781 -6.203125 0.710938 -6.378906 C 0.746094 -6.554688 0.796875 -6.722656 0.867188 -6.886719 L 0.933594 -6.839844 C 0.933594 -6.671875 1.027344 -6.546875 1.214844 -6.464844 C 1.359375 -6.40625 1.507812 -6.347656 1.652344 -6.289062 C 1.652344 -6.144531 1.640625 -5.988281 1.617188 -5.824219 C 1.59375 -5.660156 1.570312 -5.539062 1.535156 -5.457031 L 1.328125 -5.527344 L 1.839844 -2.121094 Z "/>
</g>
<g id="glyph-0-5">
<path d="M 1.46875 -2.378906 C 1.46875 -2.148438 1.425781 -1.921875 1.339844 -1.707031 C 1.296875 -1.589844 1.203125 -1.40625 1.058594 -1.15625 L 0.980469 -1.199219 C 0.988281 -1.28125 0.996094 -1.378906 1.003906 -1.488281 C 1.011719 -1.597656 1.015625 -1.671875 1.015625 -1.710938 C 1.015625 -2.011719 0.992188 -2.429688 0.945312 -2.972656 C 0.898438 -3.511719 0.839844 -4.074219 0.773438 -4.660156 C 0.730469 -5.015625 0.6875 -5.382812 0.636719 -5.75 C 0.695312 -5.878906 0.761719 -6.015625 0.835938 -6.164062 C 0.910156 -6.3125 0.980469 -6.449219 1.046875 -6.582031 C 1.09375 -6.25 1.152344 -5.800781 1.222656 -5.226562 C 1.292969 -4.652344 1.347656 -4.136719 1.390625 -3.675781 C 1.441406 -3.101562 1.46875 -2.671875 1.46875 -2.378906 Z "/>
</g>
<g id="glyph-0-6">
<rect x="0" y="0" width="0" height="0" mask="url(#mask-0)"/>
</g>
<g id="glyph-0-7">
<path d="M 4.5 -1.808594 C 4.5 -1.347656 4.394531 -0.980469 4.175781 -0.707031 C 3.980469 -0.46875 3.695312 -0.296875 3.320312 -0.191406 C 3.003906 -0.105469 2.597656 -0.0625 2.109375 -0.0625 C 1.550781 -0.0625 1.117188 -0.164062 0.8125 -0.367188 C 0.476562 -0.59375 0.308594 -0.933594 0.308594 -1.378906 C 0.308594 -1.628906 0.34375 -1.886719 0.417969 -2.15625 C 0.476562 -2.386719 0.570312 -2.636719 0.695312 -2.910156 C 0.785156 -3.105469 0.90625 -3.34375 1.058594 -3.621094 L 1.199219 -3.539062 C 1.089844 -3.34375 1 -3.171875 0.929688 -3.015625 C 0.832031 -2.8125 0.761719 -2.628906 0.714844 -2.464844 C 0.660156 -2.269531 0.632812 -2.078125 0.632812 -1.890625 C 0.632812 -1.535156 0.761719 -1.265625 1.023438 -1.085938 C 1.28125 -0.902344 1.640625 -0.8125 2.101562 -0.8125 C 2.589844 -0.8125 3.042969 -0.894531 3.460938 -1.0625 C 3.917969 -1.25 4.144531 -1.46875 4.144531 -1.726562 C 4.144531 -2.007812 4.101562 -2.484375 4.011719 -3.15625 C 3.941406 -3.671875 3.855469 -4.246094 3.753906 -4.882812 L 3.613281 -5.726562 L 3.410156 -5.828125 C 3.410156 -6.21875 3.492188 -6.570312 3.652344 -6.886719 L 3.722656 -6.886719 C 3.734375 -6.777344 3.757812 -6.695312 3.785156 -6.644531 C 3.8125 -6.589844 3.863281 -6.550781 3.929688 -6.523438 C 4.019531 -6.484375 4.117188 -6.441406 4.222656 -6.390625 C 4.300781 -6.351562 4.371094 -6.320312 4.425781 -6.289062 C 4.425781 -6.085938 4.421875 -5.941406 4.40625 -5.847656 C 4.390625 -5.753906 4.363281 -5.625 4.320312 -5.457031 L 4.070312 -5.535156 C 4.078125 -5.472656 4.121094 -5.179688 4.199219 -4.660156 C 4.289062 -4.054688 4.355469 -3.566406 4.398438 -3.191406 C 4.46875 -2.589844 4.5 -2.128906 4.5 -1.808594 Z "/>
</g>
<g id="glyph-0-8">
<path d="M 2.171875 -1.273438 L -0.304688 -1.273438 L -0.304688 -2.027344 L 1.851562 -2.027344 C 1.851562 -2.367188 1.8125 -2.628906 1.730469 -2.808594 C 1.675781 -2.933594 1.539062 -3.113281 1.324219 -3.347656 L 1.664062 -4.054688 C 1.871094 -3.789062 2 -3.585938 2.054688 -3.4375 C 2.132812 -3.214844 2.171875 -2.847656 2.171875 -2.332031 Z M 2.148438 -0.402344 L 1.808594 0.222656 L 1.105469 -0.152344 L 1.433594 -0.773438 Z M 1.148438 -0.0117188 L 0.820312 0.617188 L 0.117188 0.25 L 0.4375 -0.378906 Z "/>
</g>
<g id="glyph-0-9">
<path d="M 3.839844 -1.53125 C 3.839844 -1.054688 3.664062 -0.582031 3.3125 -0.109375 C 2.917969 0.417969 2.464844 0.679688 1.949219 0.679688 C 1.757812 0.679688 1.5625 0.660156 1.359375 0.617188 C 1.210938 0.585938 1.019531 0.53125 0.78125 0.453125 C 0.59375 0.386719 0.40625 0.320312 0.21875 0.257812 L 0.289062 0.105469 C 0.453125 0.140625 0.621094 0.179688 0.800781 0.222656 C 0.980469 0.265625 1.140625 0.285156 1.28125 0.285156 C 1.632812 0.285156 1.96875 0.195312 2.28125 0.015625 C 2.527344 -0.125 2.773438 -0.328125 3.019531 -0.597656 C 3.144531 -0.734375 3.320312 -0.957031 3.550781 -1.261719 C 3.160156 -1.261719 2.867188 -1.324219 2.675781 -1.449219 C 2.453125 -1.589844 2.34375 -1.824219 2.34375 -2.148438 C 2.34375 -2.445312 2.414062 -2.722656 2.550781 -2.976562 C 2.714844 -3.273438 2.917969 -3.421875 3.167969 -3.421875 C 3.421875 -3.421875 3.601562 -3.273438 3.710938 -2.980469 C 3.796875 -2.753906 3.839844 -2.433594 3.839844 -2.027344 Z M 3.566406 -2.003906 C 3.503906 -2.28125 3.425781 -2.476562 3.339844 -2.582031 C 3.261719 -2.675781 3.164062 -2.722656 3.050781 -2.722656 C 2.96875 -2.722656 2.898438 -2.695312 2.839844 -2.640625 C 2.78125 -2.585938 2.753906 -2.519531 2.753906 -2.4375 C 2.753906 -2.296875 2.816406 -2.191406 2.941406 -2.117188 C 3.070312 -2.042969 3.277344 -2.003906 3.566406 -2.003906 Z "/>
</g>
<g id="glyph-0-10">
<path d="M 4.710938 -1.273438 L -0.304688 -1.273438 L -0.304688 -2.027344 L 3.234375 -2.027344 C 2.9375 -2.253906 2.691406 -2.433594 2.488281 -2.5625 C 2.234375 -2.71875 2.003906 -2.835938 1.796875 -2.910156 C 1.5625 -2.988281 1.324219 -3.03125 1.085938 -3.03125 C 0.9375 -3.03125 0.789062 -3.019531 0.636719 -3 C 0.722656 -3.214844 0.832031 -3.386719 0.96875 -3.515625 C 1.164062 -3.703125 1.414062 -3.796875 1.714844 -3.796875 C 2.011719 -3.796875 2.359375 -3.652344 2.761719 -3.363281 C 2.960938 -3.21875 3.285156 -2.945312 3.738281 -2.539062 C 4.085938 -2.222656 4.324219 -2.054688 4.449219 -2.027344 L 4.710938 -2.027344 Z "/>
</g>
<g id="glyph-0-11">
<path d="M 2.148438 -5.558594 L 1.808594 -4.933594 L 1.105469 -5.308594 L 1.433594 -5.929688 Z M 1.148438 -5.167969 L 0.820312 -4.539062 L 0.117188 -4.90625 L 0.4375 -5.535156 Z M 2.171875 -1.273438 L -0.304688 -1.273438 L -0.304688 -2.027344 L 1.851562 -2.027344 C 1.851562 -2.367188 1.8125 -2.628906 1.730469 -2.808594 C 1.675781 -2.933594 1.539062 -3.113281 1.324219 -3.347656 L 1.664062 -4.054688 C 1.871094 -3.789062 2 -3.585938 2.054688 -3.4375 C 2.132812 -3.214844 2.171875 -2.847656 2.171875 -2.332031 Z "/>
</g>
</g>
<image id="source-33" x="0" y="0" width="0" height="0"/>
<mask id="mask-0">
<use xlink:href="#source-33"/>
</mask>
</defs>
<g fill="rgb(100%, 100%, 100%)" fill-opacity="1">
<use xlink:href="#glyph-0-0" x="848" y="28.047852"/>
<use xlink:href="#glyph-0-1" x="851" y="28.047852"/>
<use xlink:href="#glyph-0-2" x="853" y="28.047852"/>
<use xlink:href="#glyph-0-3" x="855" y="28.047852"/>
<use xlink:href="#glyph-0-4" x="860" y="28.047852"/>
<use xlink:href="#glyph-0-5" x="862" y="28.047852"/>
<use xlink:href="#glyph-0-6" x="864" y="28.047852"/>
<use xlink:href="#glyph-0-7" x="866" y="28.047852"/>
<use xlink:href="#glyph-0-8" x="871" y="28.047852"/>
<use xlink:href="#glyph-0-9" x="873" y="28.047852"/>
<use xlink:href="#glyph-0-10" x="877" y="28.047852"/>
<use xlink:href="#glyph-0-11" x="882" y="28.047852"/>
</g>
</svg>
